Coordinates
version=1
nRows=12
nColumns=23
inDegrees=yes

Units are S.I. units (second, meters, Newtons, ...)
If the header above contains a line with 'inDegrees', this indicates whether rotational values are in degrees (yes) or radians (no).

endheader
time	pelvis_tilt	pelvis_list	pelvis_rotation	pelvis_tx	pelvis_ty	pelvis_tz	hip_flexion_r	hip_adduction_r	hip_rotation_r	knee_angle_r	knee_angle_r_beta	ankle_angle_r	subtalar_angle_r	mtp_angle_r	hip_flexion_l	hip_adduction_l	hip_rotation_l	knee_angle_l	knee_angle_l_beta	ankle_angle_l	subtalar_angle_l	mtp_angle_l
      0.00000000	    -14.16618746	      4.54208177	     -0.72860919	      2.32023740	      0.95224450	      0.98601042	     -4.87137623	      0.56765164	     -1.34955152	     11.88254803	      0.20738959	     -1.67131424	     -4.58629150	      0.00000000	     40.35871593	      3.71619194	      1.10174283	     73.07480823	      1.27539600	      1.84510494	    -19.83725296	      0.00000000
      0.00666667	    -14.95635822	      4.80344035	      0.18802285	      2.32156301	      0.95586683	      0.98482704	     -5.67151895	      0.20077361	     -2.81487622	     10.82745136	      0.18897468	     -4.89379378	     -4.11962499	      0.00000000	     41.82533615	      4.54821017	      1.43937694	     69.70608224	      1.21660064	      1.65489677	    -19.37168339	      0.00000000
      0.01333333	    -15.73543264	      5.06778510	      1.06722950	      2.32288260	      0.95927643	      0.98366731	     -6.45504874	     -0.14342600	     -4.22996290	      9.85149951	      0.17194110	     -8.00904813	     -3.56347987	      0.00000000	     43.06563221	      5.40859922	      1.75459891	     66.11705011	      1.15396022	      1.72808078	    -18.58212915	      0.00000000
      0.02000000	    -16.51511612	      5.28531700	      1.81674372	      2.32412088	      0.96239665	      0.98266466	     -7.08882891	     -0.44392631	     -5.51005638	      9.17616722	      0.16015433	    -10.93444573	     -3.06803885	      0.00000000	     44.11655599	      6.11888815	      1.91719199	     62.34703413	      1.08816102	      1.90689752	    -17.61570735	      0.00000000
      0.02666667	    -17.20672383	      5.43440791	      2.45499815	      2.32538048	      0.96533226	      0.98179026	     -7.71305073	     -0.65446613	     -6.49749381	      8.72125064	      0.15221454	    -13.63153635	     -2.56322117	      0.00000000	     44.89415946	      6.70258591	      1.98628966	     58.41025853	      1.01945133	      2.15419340	    -16.54236799	      0.00000000
      0.03333333	    -17.72365540	      5.47215135	      3.00249994	      2.32663669	      0.96805405	      0.98097606	     -8.36993823	     -0.74844018	     -7.31046996	      8.58665404	      0.14986538	    -16.02474272	     -2.15494089	      0.00000000	     45.33975165	      7.11685054	      1.95655187	     54.37759949	      0.94906815	      2.35859940	    -15.25251142	      0.00000000
      0.04000000	    -17.99292868	      5.43412236	      3.44702616	      2.32790221	      0.97065146	      0.98027332	     -9.13317184	     -0.76028254	     -7.91366256	      8.79731093	      0.15354204	    -18.05127442	     -1.79763665	      0.00000000	     45.39853094	      7.31762173	      1.63552918	     50.26721502	      0.87732841	      2.44818507	    -13.63914603	      0.00000000
      0.04666667	    -18.02285386	      5.33061235	      3.73576278	      2.32918947	      0.97306536	      0.97972303	     -9.94470514	     -0.70868700	     -8.19964469	      9.45801359	      0.16507348	    -19.59340122	     -1.44373185	      0.00000000	     45.10331530	      7.26617001	      0.89005083	     46.13320917	      0.80517639	      2.44858381	    -11.65493994	      0.00000000
      0.05333333	    -17.88680153	      5.16272531	      3.84490484	      2.33042451	      0.97523616	      0.97937600	    -10.70033395	     -0.61602893	     -8.16462714	     10.60211141	      0.18504175	    -20.62803328	     -0.99274893	      0.00000000	     44.57332366	      6.95163041	     -0.37179692	     42.06505780	      0.73417376	      2.49733767	     -9.20578246	      0.00000000
      0.06000000	    -17.70877612	      4.93929786	      3.87796373	      2.33156511	      0.97691940	      0.97895608	    -11.29381888	     -0.48590358	     -7.84669782	     12.20591179	      0.21303335	    -21.25459210	     -0.67274406	      0.00000000	     43.94121052	      6.57167200	     -1.91065445	     38.07750444	      0.66457782	      2.34834462	     -6.76216634	      0.00000000
      0.06666667	    -17.43266653	      4.71170570	      3.88731135	      2.33258979	      0.97824011	      0.97839721	    -11.81762418	     -0.34271230	     -7.28914653	     14.19854362	      0.24781134	    -21.45924287	     -0.61655533	      0.00000000	     43.13808777	      6.26353941	     -3.58487991	     34.16031969	      0.59621005	      1.88559948	     -4.53268406	      0.00000000
      0.07333333	    -16.92775781	      4.51215988	      3.77357050	      2.33368240	      0.97932752	      0.97800698	    -12.40894494	     -0.23780016	     -6.63269410	     16.57588555	      0.28930378	    -21.23350302	     -0.16727269	      0.00000000	     42.12572498	      5.80060220	     -6.01769983	     30.62881575	      0.53457368	      1.89787680	     -1.17879056	      0.00000000
